<svg width="64" height="64" viewBox="0 0 64 64" fill="none" xmlns="http://www.w3.org/2000/svg">
  <rect x="6" y="6" width="52" height="52" rx="14" fill="#111827"/>
  <path d="M19 17C19 15.3431 20.3431 14 22 14H43C44.6569 14 46 15.3431 46 17V47C46 48.6569 44.6569 50 43 50H22C20.3431 50 19 48.6569 19 47V17Z" fill="white"/>
  <path d="M26 23V41M26 23L39 41M26 23H30L39 35V23M39 41V35M39 41H35" stroke="#111827" stroke-width="4.2" stroke-linecap="round" stroke-linejoin="round"/>
  <path d="M19 21C19 19.3431 20.3431 18 22 18H25V46H22C20.3431 46 19 44.6569 19 43V21Z" fill="#E5E7EB"/>
</svg>
